<!-- created by svgstack.com | Attribution is required. --><svg xmlns="http://www.w3.org/2000/svg" width="1024" height="1024"><path fill="#2C1A29" d="m229.66 143.031 544.924-.03c8.178-.005 16.506-.308 24.638.659 38.13 4.535 71.068 34.376 75.224 73.402 1.224 11.49.486 23.626.468 35.186l-.018 512.192c-.002 10.308.716 21.284-.484 31.518-4.984 42.494-39.838 71.086-81.288 75.492l-542.152.032c-50.38.046-96.136-19.44-101.291-77.14-1.15-12.878-.477-26.244-.463-39.18l-.004-510.48c.007-29.488-.205-48.517 20.323-72.956 15.623-18.602 36.395-26.59 60.123-28.695m-12.518 652.273c8.146 10.75 17.358 7.788 29.526 7.754l544.682-.048c12.96-3.368 14.874-13.99 15.106-25.582.92-45.598.072-91.376.07-136.994l.006-367.416c.014-23.644 9.876-61.908-20.57-62.392-40.21-.64-80.524-.018-120.746-.016l-413.488-.03c-6.546-.006-13.43-.514-19.932.028-16.142 5.002-14.764 16.686-14.656 30.79l.006 506.268c0 15.816.638 31.854-.004 47.638"/><path fill="#2C1A29" d="M634.96 347.244c18.562-1.06 37.768 14.068 37.508 33.486-.196 14.608-9.126 23.168-18.728 32.8l-93.998 93.554c22.722 20.958 44.258 43.606 66.08 65.52l22.566 22.574c8.124 8.112 19.22 17.118 22.108 28.76 4.714 18.99-6.182 38.06-25.584 42.218-23.68 5.076-34.41-11.222-49.004-26.39l-64.742-65.736c-6.294-6.344-12.976-12.272-18.918-18.962-26.596 21.27-60.09 60.298-85.51 85.118-10.878 10.62-18.838 22.994-34.754 25.694-26.656 5.452-49.618-26.096-34.608-49.534 5.83-9.106 21.414-22.95 29.534-31.122l50.336-51.242c8.79-8.956 18.22-17.516 26.554-26.898-30.35-28.246-59.056-58.85-87.91-88.67-5.742-5.934-12.178-11.648-16.998-18.358-21.656-30.16 13.968-66.766 44.08-48.142 9.184 5.682 16.096 14.964 23.786 22.446 28.074 27.314 56.564 58.816 85.49 84.634 28.15-27.524 55.024-56.314 83.472-83.56 11.808-11.312 21.498-26.446 39.24-28.19"/></svg>