<svg xmlns="http://www.w3.org/2000/svg" viewBox="0 0 300 300" width="300" height="300">

  <circle cx="150" cy="150" r="135" fill="none" stroke="#000" stroke-width="10"/>
  <circle cx="150" cy="150" r="125" fill="none" stroke="#000" stroke-width="2"/>


  <g stroke="#000" stroke-width="4" stroke-linecap="round">

    <line x1="150" y1="40"  x2="150" y2="55"/>

    <line x1="208" y1="55"  x2="198" y2="68"/>
    <line x1="238" y1="95"  x2="225" y2="103"/>
    <line x1="250" y1="150" x2="235" y2="150"/>
    <line x1="238" y1="205" x2="225" y2="197"/>
    <line x1="208" y1="245" x2="198" y2="232"/>
    <line x1="150" y1="260" x2="150" y2="245"/>
    <line x1="92"  y1="245" x2="102" y2="232"/>
    <line x1="62"  y1="205" x2="75"  y2="197"/>
    <line x1="50"  y1="150" x2="65"  y2="150"/>
    <line x1="62"  y1="95"  x2="75"  y2="103"/>
    <line x1="92"  y1="55"  x2="102" y2="68"/>
  </g>

  <g>
    <line x1="150" y1="150" x2="150" y2="85" stroke="#000" stroke-width="10" stroke-linecap="round"/>
    <line x1="150" y1="150" x2="220" y2="150" stroke="#000" stroke-width="6" stroke-linecap="round"/>
  </g>

  <circle cx="150" cy="150" r="14" fill="#000"/>
</svg>
