<?xml version="1.0" encoding="utf-8" ?><!-- created by svgstack.com | Attribution is required. --><svg xmlns="http://www.w3.org/2000/svg" xmlns:xlink="http://www.w3.org/1999/xlink" width="1024" height="1024"><path transform="scale(2 2)" d="M240.779 163.849C237.325 155.748 233.47 147.175 233.001 138.271C231.283 105.653 258.283 76.8086 290.665 75.2415C327.077 69.8408 362.112 108.333 356.112 144.976C353.791 159.15 344.058 176.482 337.116 189.068C348.225 197.685 358.528 206.91 367.025 218.179C442.345 318.069 356.3 452.119 235.233 434.929C175.242 426.529 124.423 376.745 118.328 315.798C110.736 239.896 164.213 171.42 240.779 163.849ZM293.173 84.7435C265.608 85.3346 241.809 109.202 242.609 137.041C243.199 157.6 270.83 201.225 281.718 217.944C285.588 223.888 290.017 231.546 294.853 236.742L295.16 236.848C295.596 236.415 295.957 236.022 296.309 235.514C309.935 215.708 323.078 195.384 334.214 174.06C341.948 159.251 349.435 145.287 346.323 128.206C341.892 103.88 318.631 81.6521 293.173 84.7435ZM243.386 173.112C223.03 174.351 203.586 181.696 186.425 192.488L193.961 200.904C214.206 223.336 195.349 233.728 201.959 240.959C203.78 242.951 208.239 243.403 210.782 244.227C227.147 249.526 223.045 269.027 206.603 270.532C203.301 285.264 193.676 289.618 180.838 294.433C174.012 296.993 172.889 295.738 174.258 303.057C177.739 321.668 160.427 330.317 150.87 318.343C145.591 311.729 149.447 302.539 145.674 298.357C142.935 295.322 131.698 288.535 127.603 285.804C123.256 338.222 144.499 380.255 189.038 409.006C181.865 375.471 204.416 369.086 202.249 357.682C199.992 345.808 176.943 339.418 175.545 333.331C174.97 330.83 176.59 328.08 179.185 327.626C186.43 326.36 210.648 346.074 212.119 357.583C214.416 375.56 186.597 381.369 201.594 415.226C217.193 422.697 236.349 427.204 253.677 426.8C322.296 428.658 383.464 373.688 385.213 304.599C385.359 298.805 384.695 292.854 385.238 287.1C371.844 281.971 362.152 264.49 344.181 258.963C336.505 256.602 326.106 257.259 322.263 248.518C316.721 235.914 329.352 233.894 333.769 228.652C336.174 225.798 336.285 219.492 339.446 218.453C349.263 215.225 348.75 232.58 333.79 240.568C323.902 245.849 338.912 248.144 342.938 248.994C354.446 251.421 363.343 257.58 372.11 265.267C375.41 268.16 378.685 271.662 382.455 273.915C377.209 247.612 356.135 212.154 332.364 197.728C322.691 213.291 309.541 236.24 298.131 250.35C293.615 255.934 290.39 247.35 287.469 243.321C272.846 223.151 259.699 202.297 248.034 180.301C247.103 178.547 245.873 174.023 244.122 173.07L243.386 173.112ZM178.753 197.728C152.483 219.552 136.899 240.271 129.359 275.09C133.303 277.971 137.232 280.88 141.254 283.651C148.157 288.407 155.096 290.398 156.507 299.417C156.774 301.125 157.099 323.443 164.855 311.602C168.01 303.682 157.65 293.77 172.112 287.5C181.035 283.631 192.189 282.342 196.342 272.248C197.635 269.106 198.097 263.726 201.582 262.305C204.425 261.147 210.354 261.27 211.707 257.987C214.146 252.073 198.434 253.735 193.245 244.942C186.865 234.132 198.165 224.507 192.573 214.425C191.554 212.588 181.068 199.785 178.753 197.728Z"/><path transform="scale(2 2)" d="M298.562 168.726C253.872 172.079 248.048 108.173 292.148 102.843C300.06 101.547 309.302 104.806 315.532 109.588C339.712 128.15 327.559 165.195 298.562 168.726ZM293.173 112.345C261.251 115.922 266.313 161.95 297.178 159.384C328.255 156.519 323.68 109.301 293.173 112.345Z"/><path transform="scale(2 2)" d="M299.761 392.625C293.6 399.175 283.552 404.51 279.473 392.514C275.092 379.633 278.205 360.263 276.174 346.669C274.119 332.908 258.109 337.605 249.703 331.185C231.76 317.482 252.36 283.804 270.67 281.589C278.807 280.786 286.694 284.626 294.57 286.026C303.028 287.529 312.351 286.507 319.16 292.748C325.225 298.307 333.917 316.013 334.192 324.285C334.526 334.326 326.558 340.47 322.525 348.795C319.878 354.259 318.933 360.375 317.248 366.167C314.359 376.094 306.721 385.151 299.761 392.625ZM270.67 291.305C262.596 293.741 249.549 309.857 252.461 319.063C256.061 330.448 277.166 321.761 284.461 340.493C288.267 350.266 284.405 376.197 288.682 390.614C291.646 387.648 294.484 384.539 297.178 381.326C310.679 365.451 305.931 362.781 312.966 346.809C315.946 340.044 325.166 329.773 324.754 324.293C324.328 318.634 316.681 302.931 312.343 299.457C307.125 295.279 298.27 296.414 292.072 295.429C284.883 294.286 278.099 290.61 270.67 291.305Z"/></svg> 